<?xml version="1.0" encoding="utf-8"?>
<!-- Generator: Adobe Illustrator 19.2.1, SVG Export Plug-In . SVG Version: 6.00 Build 0)  -->
<svg version="1.1" id="Layer_1" xmlns="http://www.w3.org/2000/svg" xmlns:xlink="http://www.w3.org/1999/xlink" x="0px" y="0px"
	 viewBox="0 0 500 500" style="enable-background:new 0 0 500 500;" xml:space="preserve">
<style type="text/css">
	.st0{fill:#F4F1F0;}
	.st1{fill:#675F58;}
	.st2{fill:#B3EA7F;}
</style>
<g id="window-api-coding-configuration">
	<g>
		<circle class="st0" cx="250" cy="250" r="250"/>
		<g id="_x32_">
			<g>
				<polygon class="st1" points="137.2,217.9 155.1,235.9 137.2,253.8 144.9,261.6 170.5,235.9 144.9,210.2 				"/>
				<rect x="184.6" y="225" class="st1" width="32.7" height="10.9"/>
			</g>
			<g>
				<path class="st1" d="M293.8,325.5H120c-5.6,0-10.3-4.7-10.3-10.4V183.6H327v52.2h11.2c0.4,0,0.8,0,1.2,0.1V169
					c0-12.6-10.2-22.7-22.8-22.8H120c-12.6,0-22.7,10.2-22.8,22.8v146.2c0,12.6,10.2,22.8,22.8,22.8h176.7l-2.3-2.3
					C291.7,333,291.4,328.5,293.8,325.5z M314.3,160.8c2.9,0,5.2,2.3,5.2,5.2c0,2.9-2.3,5.2-5.2,5.2s-5.2-2.3-5.2-5.2
					C309.1,163.2,311.4,160.8,314.3,160.8z M273.6,161.1H299c2.7,0,4.9,2.2,4.9,4.9c0,2.7-2.2,4.9-4.9,4.9h-25.5
					c-2.7,0-4.9-2.2-4.9-4.9C268.7,163.3,270.9,161.1,273.6,161.1z"/>
				<g>
					<path class="st2" d="M329.4,249.2c-22.9,0-41.4,18.5-41.4,41.4c0,22.9,18.5,41.4,41.4,41.4s41.4-18.5,41.4-41.4
						C370.8,267.8,352.3,249.2,329.4,249.2z M327.5,308.5l-2.9,3.2l-2.8-3.3l-16-18.6l5.2-5.6l13,9.5l28.3-23.3l5.3,5.6L327.5,308.5
						z"/>
				</g>
			</g>
		</g>
	</g>
</g>
<g id="Layer_1_1_">
</g>
</svg>
